<?xml version="1.0" encoding="utf-8"?>
<!-- Generator: Adobe Illustrator 21.0.2, SVG Export Plug-In . SVG Version: 6.00 Build 0)  -->
<svg version="1.1" id="Calque_1" xmlns="http://www.w3.org/2000/svg" xmlns:xlink="http://www.w3.org/1999/xlink" x="0px" y="0px"
	 viewBox="0 0 90 90" style="enable-background:new 0 0 90 90;" xml:space="preserve">
<style type="text/css">
	.st0{fill:#FFFFFF;}
</style>
<g>
	<path class="st0" d="M45,0C20.1,0,0,20.1,0,45s20.1,45,45,45s45-20.1,45-45S69.9,0,45,0z M45,65.3c-2.1,0-3.8-1.7-3.8-3.8
		c0-2.1,1.7-3.8,3.8-3.8s3.8,1.7,3.8,3.8S47.1,65.3,45,65.3z M49.5,30.2L45,52.8l-4.5-22.6c-0.3-1.5,0.2-3.1,1.3-4.2
		c1.8-1.8,4.7-1.8,6.5,0C49.3,27.1,49.8,28.7,49.5,30.2z"/>
</g>
</svg>
