<?xml version="1.0" encoding="utf-8"?>
<!-- Generator: Adobe Illustrator 21.0.2, SVG Export Plug-In . SVG Version: 6.00 Build 0)  -->
<svg version="1.1" id="Calque_1" xmlns="http://www.w3.org/2000/svg" xmlns:xlink="http://www.w3.org/1999/xlink" x="0px" y="0px"
	 viewBox="0 0 28.6 92.3" style="enable-background:new 0 0 28.6 92.3;" xml:space="preserve">
<style type="text/css">
	.st0{fill:#FFFFFF;}
</style>
<g>
	<path class="st0" d="M28,52.4c-0.3,0.7-1.6,2.1-1.8,2.1c-0.2,0.1-0.3-0.2-0.3-0.5c-0.5-0.2,0.3-1.2,0.3-1.2c1.1-1.6,1-4.2,0.8-4.1
		c-0.2,0.1-0.3,1.2-0.2,1.6c0.1,0.4-0.1,1.1-0.6,1.1c-0.4,0-0.6-0.9-0.6-1.3c0-0.5,0-1.4,0-1.9c0-0.4,0.4-1.7,0.5-2.4
		c0.1-0.7-0.2-1.8-0.4-2.4c-0.2-0.6-2.1-4.9-2.7-6.4c-0.5-1.5-0.7-3.3-0.7-4s-0.3-3-0.3-3.5c0-0.6-0.3-5.7-0.3-5.7s-0.8,6.6-1,8.1
		c-0.2,1.6,0.8,2.6,1.1,3.3c0.5,1.1,2.3,5.5,2.7,7.6c0.4,2,0.5,5.1,0.1,6.9c-0.2,0.8-1.5,5.7-2.1,7.3c-0.5,1.2-0.9,2.5-1.2,4.2
		c-0.2,1.7-0.3,4.4-0.2,5.7c0.1,1.3-0.1,4.8-1.1,8.5c0,0-0.8,2.2-3.3,7.8c-0.3,0.7,2.1,4.2,2.8,5.5c0.7,1.3,1.3,3.1,0.5,3.5
		c-1.8,0.9-4.5-2.6-4.9-4.1c-0.4-1.7-1.8-2.7-1.5-3.8c0.2-0.9,0.8-1.6,0.9-2.2c0-0.6,0.2-6.4,0.2-6.4s0.1-4.3,0.5-6.7
		c0.4-2.3,0.1-4.4,0-5.4c-0.1-1-0.1-2.5,0.1-4.4c0.2-1.9,0.2-7.2,0.1-7.9c-0.1-1.5,0.1-3.3,0-3.5c-1,0-1.3,0-1.5,0
		c0,1-0.3,3.7-0.4,4.8c0,1-0.1,6.3,0,8c0.1,1.9-0.2,2.9-0.4,4.1c-0.2,1.2-0.5,1.7-0.5,2.6c0,0.9,0.3,2.3,0.5,3.7
		c0.2,1.4,0.1,4.7,0.1,4.7s-0.7,5.6-0.1,6.9c0.6,1.4-0.7,3.6-0.9,4.8c-1.1,4.4-3.7,4.8-4.1,4.7c-0.5-0.1-2.3-1.9,1.9-8.2
		c0.6-0.9-0.3-4.5-1.6-8c0,0-1.4-5.8-1-9.2c0.4-3.5-0.5-8.5-0.8-9.6c-0.3-1.1-1.6-5.9-1.9-8.2c-0.4-2.3-0.4-4.9,0.5-7.4
		c0.9-2.5,2.3-7,2.6-8.4c0.3-1.4-0.2-7.5-0.2-7.5c-0.6,7.5-0.5,7.3-0.6,8.2c-0.1,0.7-3.2,9-3.5,9.9c-0.3,0.9-0.3,1.7-0.1,2.4
		C3.7,46.9,3,48,2.9,48.8c-0.1,0.8-0.3,1.9-0.3,1.9s0,0.5-0.5,0.5c-0.4,0-0.4-1.5-0.4-2.3c0,0.4,0,0.9-0.1,1.2c-0.1,0.6,0,1,0.9,2.4
		s0,1.8-0.2,1.4c-0.2-0.3-0.9-1.2-1-1.5c-0.2-0.3-1-1.3-1.1-2.2c-0.2-0.9-0.1-1.8,0.4-2.8c0.5-1,1.3-7,1.5-8.1
		c0.2-1.2,0.8-6,0.8-6.3c0.2-0.9,1.1-2.7,1.2-3.3c0.1-0.5,0.2-3.2,0.3-4.5c0.1-0.7,0.2-2,0.3-3.3c-0.3-0.7-0.6-1.4-0.8-2.3
		c-0.3-1.9,1.5-2.6,3.1-3c1-0.3,2.2-0.4,3.5-0.5c2.3-0.3,2-3.5,2-3.5l-1-3.2c0,0-0.8-0.4-0.8-1.1c0-1.3,0.4-1.2,0.4-1.2
		s-0.5-1.3,0.3-3.9c0.8-2.6,4.7-2,4.7-2C19,1.4,18.5,7,18.5,7s0.4,0,0.4,0.4s-0.1,1.7-0.7,1.7c-0.3,0-1.4,3.5-1.4,3.5
		c-0.3,1,0.6,2.6,1.4,3.2c0.9,0.7,4.7,0.9,4.8,0.9c0,0,0,0,0,0c1.6,0.3,3.4,1.1,3.1,3c-0.2,1-0.5,1.8-0.9,2.6
		c0.1,1.9,0.4,5.7,0.5,7.2c0,1.8,1.1,3.9,1.2,4.8c0.1,0.8,0.5,5.7,0.5,5.7s0.6,4.7,1,7.5C28.9,50.2,28.3,51.7,28,52.4z"/>
	<path class="st0" d="M7.8,34.5L1.3,53.7c-0.5,0.8-1.9,5.2,3.2,4.1c8.9-2,5.5,2.4,10.6,1.3c4.6-1,5.9-3.2,8.8-1.8
		c3.6,1.8,4.5-0.4,4.5-0.4S24.5,42.2,23.6,40c-0.9-2.3-2.4-5.7-2.4-5.7L7.8,34.5z"/>
	<path class="st0" d="M14.7,18c-7.4,0-7.4-2.5-7.4-2.5s2.6-0.3,2-4.6c-0.4-3-0.6-11.8,5-10.7c0,0,4.3-1.9,5.2,8s3,6,2.6,7.7
		C21.6,18,14.7,18,14.7,18z"/>
	<path class="st0" d="M21.1,16.5"/>
</g>
</svg>
