<svg id="Calque_1" data-name="Calque 1" xmlns="http://www.w3.org/2000/svg" viewBox="0 0 42.75 36.94"><defs><style>.cls-1{fill:#fff;}</style></defs><title>icon_hearth</title><path class="cls-1" d="M13.7,20.46l2.1-10.15a.78.78,0,0,1,.81-.64.8.8,0,0,1,.77.68l2.37,14.94,2-18.78a.8.8,0,0,1,.8-.72h0a.8.8,0,0,1,.79.73l1.26,14,2.13-5.73a.8.8,0,0,1,1.54.15l1,5.85h9.77c2.18-3,3.67-6.09,3.67-8.93A11.81,11.81,0,0,0,21.38,4.88,11.8,11.8,0,0,0,11.82,0C5.29,0,0,3.69,0,11.82c0,2.81,1.32,5.77,3.3,8.64Z"/><path class="cls-1" d="M28.64,22.36a.8.8,0,0,1-.79-.67l-.6-3.57-2.32,6.24a.8.8,0,0,1-1.55-.21l-.85-9.46L20.69,31.43a.8.8,0,0,1-.78.72h0a.8.8,0,0,1-.79-.68L16.49,14.94l-1.34,6.48a.8.8,0,0,1-.79.64H4.49c6.27,8,16.89,14.88,16.89,14.88s10.17-6.81,16.48-14.58Z"/></svg>