<svg id="Calque_1" data-name="Calque 1" xmlns="http://www.w3.org/2000/svg" viewBox="0 0 850.44 162.38"><defs><style>.cls-1,.cls-2,.cls-3,.cls-4{fill:#fff;}.cls-1{opacity:0.6;}.cls-2{opacity:0.8;}.cls-3{opacity:0.75;}</style></defs><title>icon_Plan de travail 1</title><polygon class="cls-1" points="103.84 103.84 58.54 58.54 58.54 13.25 103.84 13.25 103.84 103.84"/><rect class="cls-1" x="58.54" y="103.84" width="45.3" height="45.3"/><polygon class="cls-2" points="103.84 103.84 13.25 103.84 13.25 58.54 58.54 58.54 103.84 103.84"/><rect class="cls-2" x="103.84" y="58.54" width="45.3" height="45.3"/><polygon class="cls-3" points="58.54 110.84 103.84 103.84 58.54 103.84 58.54 110.84"/><polygon class="cls-3" points="110.84 58.54 103.84 103.84 103.84 58.54 110.84 58.54"/><path class="cls-4" d="M328.59,57.44q-.14-4.07-.41-7.33H337q.27,2.58.41,5.7t.14,5.16h.27a22,22,0,0,1,8.14-9,22.23,22.23,0,0,1,12.21-3.46q1.76,0,3.19.14a17.43,17.43,0,0,1,2.92.54L363.05,58a17.59,17.59,0,0,0-2.71-.54,27,27,0,0,0-3.8-.27,18.85,18.85,0,0,0-7.06,1.35,15.13,15.13,0,0,0-5.9,4.26,22.39,22.39,0,0,0-4.07,7.44A33.63,33.63,0,0,0,338,81.13v32.49h-9.23V64.09Q328.73,61.52,328.59,57.44Z"/><path class="cls-4" d="M435.38,80v2a21.23,21.23,0,0,1-.14,2.31H382.59a24.73,24.73,0,0,0,1.9,9,22.55,22.55,0,0,0,4.88,7.33,23.5,23.5,0,0,0,7.33,5,24.26,24.26,0,0,0,21.51-1.49,24.86,24.86,0,0,0,7.94-7.67l6.92,5.43a34.42,34.42,0,0,1-12.55,10.31,35.11,35.11,0,0,1-14.72,3.12,33.78,33.78,0,0,1-13.09-2.51,30.64,30.64,0,0,1-10.38-7,33.07,33.07,0,0,1-6.85-10.58A34.61,34.61,0,0,1,373,81.87a35.48,35.48,0,0,1,2.44-13.3A32.17,32.17,0,0,1,382.19,58a31.2,31.2,0,0,1,10.18-7A31.59,31.59,0,0,1,405,48.49,32.4,32.4,0,0,1,418.14,51a27.15,27.15,0,0,1,9.5,6.78,29.18,29.18,0,0,1,5.77,10A37.21,37.21,0,0,1,435.38,80ZM426,77a22.89,22.89,0,0,0-5.77-14.86q-5.36-5.9-15.26-5.9a21.37,21.37,0,0,0-8.55,1.7,22.61,22.61,0,0,0-6.92,4.61,22.92,22.92,0,0,0-4.75,6.65,21.42,21.42,0,0,0-2,7.8Z"/><path class="cls-4" d="M500.91,64.63a17.55,17.55,0,0,0-6.72-6,19.88,19.88,0,0,0-9.57-2.37,24.73,24.73,0,0,0-10,2,22.71,22.71,0,0,0-7.67,5.43A23.83,23.83,0,0,0,462,71.76a29.43,29.43,0,0,0-1.7,10.11,28.84,28.84,0,0,0,1.7,10,24.54,24.54,0,0,0,4.82,8.07,22,22,0,0,0,7.6,5.43,24.68,24.68,0,0,0,10,2,20.24,20.24,0,0,0,17.23-8.28l6.92,5.16a30.22,30.22,0,0,1-10,8,31.13,31.13,0,0,1-14.18,3,37.17,37.17,0,0,1-14-2.51,30.91,30.91,0,0,1-10.65-7A31.63,31.63,0,0,1,453,95.16a37.42,37.42,0,0,1,0-26.6A31.63,31.63,0,0,1,459.87,58a30.94,30.94,0,0,1,10.65-7,37.16,37.16,0,0,1,14-2.51,33.15,33.15,0,0,1,13,2.78,25.39,25.39,0,0,1,10.65,8.21Z"/><path class="cls-4" d="M586.12,81.87a34.65,34.65,0,0,1-2.51,13.3,32,32,0,0,1-7,10.58,31.67,31.67,0,0,1-10.72,7,36.43,36.43,0,0,1-13.7,2.51,36,36,0,0,1-13.57-2.51,31.64,31.64,0,0,1-10.72-7,32,32,0,0,1-7-10.58,36.48,36.48,0,0,1,0-26.6A31.33,31.33,0,0,1,538.63,51a36,36,0,0,1,13.57-2.51A36.42,36.42,0,0,1,565.91,51a31.33,31.33,0,0,1,17.71,17.57A34.65,34.65,0,0,1,586.12,81.87Zm-9.77,0a29.07,29.07,0,0,0-1.7-10,24.47,24.47,0,0,0-4.82-8.14,22.81,22.81,0,0,0-7.6-5.5,24,24,0,0,0-10-2,23.53,23.53,0,0,0-10,2,23,23,0,0,0-7.53,5.5,24.4,24.4,0,0,0-4.82,8.14,30.17,30.17,0,0,0,0,19.95A24.4,24.4,0,0,0,534.7,100a22.15,22.15,0,0,0,7.53,5.43,24.2,24.2,0,0,0,10,2,24.69,24.69,0,0,0,10-2,22,22,0,0,0,7.6-5.43,24.47,24.47,0,0,0,4.82-8.14A29.07,29.07,0,0,0,576.35,81.87Z"/><path class="cls-4" d="M632,113.62H621.81l-25.92-63.5h10.31l20.62,53.73h.27l20.76-53.73h9.91Z"/><path class="cls-4" d="M730,80v2a21.31,21.31,0,0,1-.14,2.31H677.17a24.72,24.72,0,0,0,1.9,9,22.56,22.56,0,0,0,4.88,7.33,23.5,23.5,0,0,0,7.33,5,24.26,24.26,0,0,0,21.51-1.49,24.84,24.84,0,0,0,7.94-7.67l6.92,5.43a34.41,34.41,0,0,1-12.55,10.31,35.11,35.11,0,0,1-14.72,3.12,33.78,33.78,0,0,1-13.09-2.51,30.64,30.64,0,0,1-10.38-7A33.06,33.06,0,0,1,670,95.16a34.6,34.6,0,0,1-2.51-13.3A35.49,35.49,0,0,1,670,68.57,32.17,32.17,0,0,1,676.76,58a31.2,31.2,0,0,1,10.18-7,31.58,31.58,0,0,1,12.62-2.51A32.4,32.4,0,0,1,712.72,51a27.15,27.15,0,0,1,9.5,6.78,29.18,29.18,0,0,1,5.77,10A37.21,37.21,0,0,1,730,80Zm-9.36-3a22.89,22.89,0,0,0-5.77-14.86q-5.36-5.9-15.27-5.9a21.37,21.37,0,0,0-8.55,1.7,22.61,22.61,0,0,0-6.92,4.61,22.94,22.94,0,0,0-4.75,6.65,21.42,21.42,0,0,0-2,7.8Z"/><path class="cls-4" d="M749.63,57.44q-.14-4.07-.41-7.33H758q.27,2.58.41,5.7t.14,5.16h.27a22,22,0,0,1,8.14-9,22.23,22.23,0,0,1,12.21-3.46q1.76,0,3.19.14a17.44,17.44,0,0,1,2.92.54L784.09,58a17.58,17.58,0,0,0-2.71-.54,27,27,0,0,0-3.8-.27,18.85,18.85,0,0,0-7.06,1.35,15.13,15.13,0,0,0-5.9,4.26,22.39,22.39,0,0,0-4.07,7.44A33.64,33.64,0,0,0,759,81.13v32.49h-9.23V64.09Q749.76,61.52,749.63,57.44Z"/><path class="cls-4" d="M820.45,103.71h.27l19.68-53.6h10L818.83,130a33.53,33.53,0,0,1-7.26,11.74q-4.41,4.41-12.69,4.41a42.08,42.08,0,0,1-8.28-.81l.95-8.41a21.32,21.32,0,0,0,6.78,1.09,9.7,9.7,0,0,0,7.46-2.92,25.21,25.21,0,0,0,4.75-8.34l5.16-13.3L788.57,50.12h10.31Z"/><path class="cls-4" d="M307.83,31.87a21.38,21.38,0,0,0-6.58-8A29.37,29.37,0,0,0,291,19.11a52.66,52.66,0,0,0-13.3-1.56H250.57V60.7H204.84V69h45.73v44.66h9.77V69h17.1a51.28,51.28,0,0,0,13.37-1.63,30.2,30.2,0,0,0,10.31-4.82,22,22,0,0,0,6.65-8,25.36,25.36,0,0,0,2.37-11.33A26,26,0,0,0,307.83,31.87ZM294.4,56.22q-6,4.48-17.5,4.48H260.34V26h16.55q11.12,0,17.3,4.14t6.17,13.09Q300.37,51.74,294.4,56.22Z"/></svg>